<svg width="113" height="115" viewBox="0 0 113 115" fill="none" xmlns="http://www.w3.org/2000/svg">
<path fill-rule="evenodd" clip-rule="evenodd" d="M30.3746 97.4891C65.4337 96.6104 93.1144 66.3582 92.2011 29.9189C91.936 19.3405 89.2903 9.40354 84.8108 0.648638C93.3183 6.47012 100.256 14.3037 105.006 23.4531C109.766 32.6199 112.182 42.8225 112.039 53.1503C111.896 63.4781 109.199 73.6099 104.188 82.6415C99.1762 91.6731 92.0068 99.3237 83.3193 104.91C74.6317 110.497 64.6962 113.846 54.3994 114.658C44.1027 115.471 33.7649 113.722 24.3086 109.567C14.8524 105.412 6.57184 98.9805 0.205952 90.8466C0.534727 90.8818 0.863582 90.9143 1.19249 90.9441C10.0016 95.3743 19.9262 97.7509 30.3746 97.4891Z" fill="black"/>
</svg>
